<?xml version="1.0" encoding="UTF-8"?>
<svg width="210px" height="47px" viewBox="0 0 210 47" version="1.1" xmlns="http://www.w3.org/2000/svg" xmlns:xlink="http://www.w3.org/1999/xlink">
    <!-- Generator: Sketch 52.1 (67048) - http://www.bohemiancoding.com/sketch -->
    <title>分组 2 copy</title>
    <desc>Created with Sketch.</desc>
    <g id="Page-3" stroke="none" stroke-width="1" fill="none" fill-rule="evenodd">
        <g id="网页logo替换" transform="translate(-96.000000, -156.000000)">
            <g id="分组-2-copy" transform="translate(96.000000, 156.000000)">
                <g id="分组-6" transform="translate(0.000000, 12.000000)">
                    <g id="分组">
                        <g id="分组-3">
                            <path d="M19.8461605,6.64119383 L14.289615,6.64119383 C12.1606253,6.64119383 10.2912582,8.01416562 9.71401412,10.0017809 L7.86633418,16.3638679 C7.82565804,16.5039274 7.90974445,16.6494509 8.05414643,16.6889038 C8.07811424,16.6954522 8.10289654,16.698773 8.12779709,16.698773 L15.749834,16.698773 C15.8998556,16.698773 16.0214722,16.8167323 16.0214722,16.9622424 C16.0214722,16.9869252 16.0178961,17.0114856 16.010849,17.0352031 L14.3206141,22.9243429 C14.2870925,23.0371614 14.1806496,23.1148515 14.0595992,23.1148515 L3.06991989,23.1148515 C1.56970393,23.1148515 0.353538612,21.935259 0.353538612,20.4801578 C0.353538612,20.239266 0.387599523,19.9995122 0.454769319,19.7675976 L4.0645907,7.3041074 C5.31561421,2.98474705 9.37649908,-7.81915117e-14 14.0021629,-7.10542736e-14 L27.7669861,-7.10542736e-14 C28.3670725,-7.11712775e-14 28.8535386,0.471837018 28.8535386,1.05387748 C28.8535386,1.1489626 28.8402715,1.24361037 28.8140983,1.33524404 L21.6608176,26.3793089 C20.2495661,31.3201849 15.4143825,34.5887394 10.146721,34.1627678 C11.5228897,33.4728182 12.8271824,31.4854938 14.0595992,28.2007945 C14.502735,26.7561315 16.5622712,19.7372197 20.2382077,7.144059 C20.2995121,6.93404803 20.1736809,6.7155992 19.957158,6.65614044 C19.9210452,6.64622359 19.8836928,6.64119383 19.8461605,6.64119383 Z" id="Combined-Shape" fill="#26C6DA"></path>
                            <path d="M34.5153127,-2.48689958e-14 L38.1384999,-2.48689958e-14 C38.2848767,-2.48989592e-14 38.4035386,0.120832241 38.4035386,0.269886364 C38.4035386,0.294753571 38.4001635,0.319501467 38.3935092,0.343427665 L32.3847514,21.0548241 C31.9001449,22.7972611 30.3380502,24 28.5596119,24 L25.050541,24 C24.9041642,24 24.7855023,23.8791678 24.7855023,23.7301136 C24.7855023,23.7057225 24.7887494,23.681444 24.7951548,23.6579412 L30.6845198,2.96570952 C31.1621835,1.21307323 32.7291045,-2.26816672e-14 34.5153127,-2.48689958e-14 Z" id="Rectangle-4" fill="#26C6DA" fill-rule="nonzero"></path>
                            <path d="M35.1052247,20.4940087 L40.4108191,2.01125011 C40.7522716,0.821754144 41.8588546,3.28464493e-15 43.1191902,1.96011789e-15 L46.3103371,0 L40.8356932,18.8338558 L50,18.8338558 L48.5545355,23.7998425 C48.5200526,23.9183106 48.4096313,24 48.283978,24 L37.8135958,24 C36.2596897,24 35,22.7649234 35,21.2413793 C35,20.9887066 35.0354059,20.7372318 35.1052247,20.4940087 Z" id="Path" fill="#FFFFFF"></path>
                            <path d="M48,24 L54.2490647,2.02421302 C54.5891407,0.82828415 55.7093904,2.27913624e-16 56.9868016,0 L60.0608311,1.96011789e-15 L62.4174227,14.104493 L65.8982323,2.01564759 C66.2413596,0.823967103 67.3595043,2.18742538e-15 68.6335182,1.96011789e-15 L72,0 L64.9859903,24 L59.5945886,24 L57.8545741,8.71359471 L53.3417832,24 L48,24 Z" id="Path" fill="#FFFFFF"></path>
                            <path d="M81.9438043,0.0175363577 C87.6517388,0.32467878 90.3296928,5.49757659 89.9676623,9.53978465 L85.1819382,9.53978465 C85.1819382,8.32467708 83.8564814,4.04664405 80.941916,4.04664405 C77.9678369,4.04664405 75.6771918,8.00056389 74.8937659,11.5216848 C74.1103399,15.0428057 74.9937578,19.22602 77.9678369,19.603396 C79.9505563,19.8549799 81.8286624,18.3607429 83.6021551,15.1206848 L80.1154336,15.1206848 L80.8527707,13.1647309 C81.2564169,12.0939677 82.2858251,11.384542 83.4359036,11.384542 L89.7549839,11.384542 C89.2625374,13.4922018 88.9712944,14.7375828 88.881255,15.1206848 C86.844756,22.1441763 81.7469038,24.4839552 77.1863429,23.9192108 C72.6257819,23.3544664 68.5231785,17.780575 70.5170424,10.597229 C72.5109063,3.41388302 76.2594238,-0.288338629 81.9438043,0.0175363577 Z" id="G" fill="#FFFFFF"></path>
                        </g>
                    </g>
                </g>
                <text id="业务管理系统" font-family="PingFangSC-Regular, PingFang SC" font-size="16" font-weight="normal" fill="#FFFFFF">
                    <tspan x="103" y="29">业务管理系统</tspan>
                </text>
                <circle id="椭圆形" fill="#FFFFFF" fill-rule="nonzero" cx="96.5" cy="23.5" r="1.5"></circle>
            </g>
        </g>
    </g>
</svg>