<?xml version="1.0" standalone="no"?><!DOCTYPE svg PUBLIC "-//W3C//DTD SVG 1.1//EN" "http://www.w3.org/Graphics/SVG/1.1/DTD/svg11.dtd"><svg t="1528705645985" class="icon" style="" viewBox="0 0 1024 1024" version="1.1" xmlns="http://www.w3.org/2000/svg" p-id="14475" xmlns:xlink="http://www.w3.org/1999/xlink" width="16" height="16"><defs><style type="text/css"></style></defs><path d="M54.613333 700.300567C155.438518 775.111988 319.182856 822.193456 512 822.193456 704.816924 822.193456 868.561693 775.111988 969.386667 700.300567L969.386667 810.787748C905.238101 898.634517 724.942223 961.982685 512 961.982685 299.086564 961.982685 118.761908 898.634517 54.613333 810.787748zM54.613333 461.230045C159.697991 543.988131 336.106243 586.982392 512 586.982392 687.89376 586.982392 864.302223 543.988131 969.386667 461.230045L969.386667 589.269811C905.238101 677.031163 724.942223 740.464805 512 740.464805 299.086564 740.464805 118.761908 677.031163 54.613333 589.269811zM512 62.017302C724.942223 62.017296 905.238101 125.450947 969.386667 213.268935L969.386667 353.972443C905.238101 441.819212 724.942223 505.196167 512 505.196167 299.086564 505.196167 118.761908 441.819212 54.613333 353.972443L54.613333 213.268935C118.761908 125.450947 299.086564 62.017296 512 62.017302z" p-id="14476" fill="#7c8fa0"></path></svg>