<?xml version="1.0" standalone="no"?><!DOCTYPE svg PUBLIC "-//W3C//DTD SVG 1.1//EN" "http://www.w3.org/Graphics/SVG/1.1/DTD/svg11.dtd"><svg t="1526960361334" class="icon" style="" viewBox="0 0 1024 1024" version="1.1" xmlns="http://www.w3.org/2000/svg" p-id="2746" xmlns:xlink="http://www.w3.org/1999/xlink" width="32" height="32"><defs><style type="text/css"></style></defs><path d="M605.118817 401.331868c0 20.874988-17.293495 37.759169-38.577796 37.759169L287.389228 439.091036c-21.284301 0-38.475467-16.884181-38.475467-37.759169L248.91376 201.177576c0-20.874988 17.293495-37.861497 38.475467-37.861497l279.254122 0c21.284301 0 38.577796 16.884181 38.577796 37.861497L605.221145 401.331868zM933.695213 257.355851c0 0 0.511642-12.381733-14.223643-25.377436-28.8566-25.479764-77.87189-67.843709-92.811832-82.578995-8.390926-8.288598-27.730988-13.098031-40.624363 0.204657-12.279404 12.688718-6.958329 29.265914 2.148896 37.759169 12.893375 12.074748 42.05696 35.917258 58.634156 53.824723-13.81433 16.679524-36.633557 34.280004-50.8572 49.731588-1.841911 1.944239-1.739582 4.195463-1.739582 5.218747 0.102328 8.80024 0.409313 14.939942 0.306985 18.623763-0.102328 3.274508 3.78615 4.40012 5.525732 4.40012l72.141501 0c4.809433 0 6.037374 4.809433 6.037374 4.809433l0 455.770561c0 25.479764-14.121315 33.461377-28.549615 33.461377-14.4283 0-29.879884-8.083941-29.879884-33.461377L819.803737 407.062256c0-33.768362-3.78615-49.117618-42.67093-51.164185-9.516538-0.511642-47.68502-0.102328-68.45768 0L708.675127 118.393924c0-31.312481-25.889078-56.689917-57.815529-56.689917l-446.151694 0c-31.926451 0-57.815529 25.377436-57.815529 56.689917l0 761.732387-33.052064 0c-13.20036 0-23.740182 10.437494-23.740182 23.330868l0 34.382332c0 12.893375 10.64215 24.45648 23.740182 24.45648l626.761267 0c13.098031 0 23.740182-11.563106 23.740182-24.45648l0-34.382332c0-12.893375-10.64215-23.330868-23.740182-23.330868l-32.02878 0L708.572799 410.746078c11.665434 0 28.037973 0 39.805736 0 14.223643 0 15.451584 13.81433 15.451584 13.81433l0 358.763266c0 91.583891 77.155591 92.402518 85.751174 92.402518 11.563106 0 84.011592 0 84.011592-91.276906L933.592885 257.355851z" p-id="2747" fill="#21335d"></path></svg>