<?xml version="1.0" standalone="no"?><!DOCTYPE svg PUBLIC "-//W3C//DTD SVG 1.1//EN" "http://www.w3.org/Graphics/SVG/1.1/DTD/svg11.dtd"><svg t="1526960444135" class="icon" style="" viewBox="0 0 1024 1024" version="1.1" xmlns="http://www.w3.org/2000/svg" p-id="1208" xmlns:xlink="http://www.w3.org/1999/xlink" width="32" height="32"><defs><style type="text/css"></style></defs><path d="M512 0C230.4 0 0 230.4 0 512s230.4 512 512 512 512-230.4 512-512S793.6 0 512 0z m0 953.6C268.8 953.6 70.4 755.2 70.4 512S268.8 70.4 512 70.4 953.6 268.8 953.6 512 755.2 953.6 512 953.6z" p-id="1209" fill="#21335d"></path><path d="M838.4 608c0 76.8-57.6 166.4-121.6 217.6-25.6 19.2-57.6 44.8-70.4 51.2H640c76.8-275.2-89.6-435.2-108.8-428.8-6.4 6.4-38.4 192-57.6 192-6.4 0-6.4-89.6-19.2-89.6-6.4 0-57.6 108.8-83.2 160-19.2 38.4-19.2 76.8-12.8 115.2l19.2 57.6h-6.4c-6.4-6.4-12.8-12.8-19.2-12.8-70.4-44.8-179.2-64-166.4-268.8 6.4-96 51.2-179.2 115.2-236.8h6.4c32 19.2 12.8 108.8 25.6 108.8 6.4 0 12.8-12.8 19.2-19.2C409.6 352 467.2 147.2 473.6 140.8h6.4c115.2 32 160 147.2 192 256 0 12.8 12.8 12.8 12.8 12.8C704 396.8 672 294.4 697.6 288c0 0 6.4 6.4 12.8 6.4 38.4 44.8 134.4 115.2 128 313.6z" p-id="1210" fill="#21335d"></path></svg>