<?xml version="1.0" standalone="no"?><!DOCTYPE svg PUBLIC "-//W3C//DTD SVG 1.1//EN" "http://www.w3.org/Graphics/SVG/1.1/DTD/svg11.dtd"><svg t="1526960453309" class="icon" style="" viewBox="0 0 1024 1024" version="1.1" xmlns="http://www.w3.org/2000/svg" p-id="1525" xmlns:xlink="http://www.w3.org/1999/xlink" width="32" height="32"><defs><style type="text/css"></style></defs><path d="M616.09984 284.62592c-13.47072-3.84-38.31808-5.76512-74.58816-5.76512h-154.5216V511.3856h156.17024c51.64032 0 88.32-10.35264 110.0288-31.06304 21.68832-20.70528 32.54784-49.8432 32.54784-87.41888 0-27.2128-6.38976-50.5088-19.16928-69.888-12.76928-19.37408-29.59872-32.17408-50.46784-38.38976z" fill="#21335d" p-id="1526"></path><path d="M512 52.48c-253.78304 0-459.52 205.73696-459.52 459.52s205.73696 459.52 459.52 459.52 459.52-205.73696 459.52-459.52S765.78304 52.48 512 52.48z m207.11936 478.208c-32.70144 38.30784-91.76064 57.46688-177.18784 57.46688H386.99008v264.4736H307.0464V202.09152h227.87072c40.11008 0 70.73792 2.0736 91.88864 6.21056 29.6704 5.3248 54.528 15.4624 74.57792 30.39744 20.06016 14.94016 36.1984 35.87584 48.41984 62.79168 12.23168 26.92608 18.33984 56.50944 18.33984 88.75008 0.00512 55.3216-16.34304 102.13888-49.024 140.44672z" fill="#21335d" p-id="1527"></path></svg>