<?xml version="1.0" standalone="no"?><!DOCTYPE svg PUBLIC "-//W3C//DTD SVG 1.1//EN" "http://www.w3.org/Graphics/SVG/1.1/DTD/svg11.dtd"><svg t="1528709704431" class="icon" style="" viewBox="0 0 1098 1024" version="1.1" xmlns="http://www.w3.org/2000/svg" p-id="1708" xmlns:xlink="http://www.w3.org/1999/xlink" width="17.15625" height="16"><defs><style type="text/css"></style></defs><path d="M634.88 569.124571l0-2.267429-13.677714-182.857143q-0.585143-7.460571-6.290286-12.873143t-13.165714-5.412571l-106.276571 0q-7.460571 0-13.165714 5.412571t-6.290286 12.873143l-13.677714 182.857143 0 2.267429q-0.585143 6.875429 4.534857 11.410286t11.995429 4.534857l139.410286 0q6.875429 0 11.995429-4.534857t4.534857-11.410286zM1068.544 836.022857q0 41.691429-26.258286 41.691429l-402.285714 0q7.460571 0 12.580571-5.412571t4.534857-12.873143l-11.410286-146.285714q-0.585143-7.460571-6.290286-12.873143t-13.165714-5.412571l-155.428571 0q-7.460571 0-13.165714 5.412571t-6.290286 12.873143l-11.410286 146.285714q-0.585143 7.460571 4.534857 12.873143t12.580571 5.412571l-402.285714 0q-26.258286 0-26.258286-41.691429 0-30.866286 14.848-66.267429l238.299429-596.553143q4.534857-10.825143 14.848-18.870857t21.723429-7.972571l193.682286 0q-7.460571 0-13.165714 5.412571t-6.290286 12.873143l-8.557714 109.714286q-0.585143 7.972571 4.534857 13.165714t12.580571 5.12l94.866286 0q7.460571 0 12.580571-5.12t4.534857-13.165714l-8.557714-109.714286q-0.585143-7.460571-6.290286-12.873143t-13.165714-5.412571l193.682286 0q11.410286 0 21.723429 7.972571t14.848 18.870857l238.299429 596.553143q14.848 35.401143 14.848 66.267429z" p-id="1709" fill="#7c8fa0"></path></svg>