<?xml version="1.0" standalone="no"?><!DOCTYPE svg PUBLIC "-//W3C//DTD SVG 1.1//EN" "http://www.w3.org/Graphics/SVG/1.1/DTD/svg11.dtd"><svg t="1528709536735" class="icon" style="" viewBox="0 0 1024 1024" version="1.1" xmlns="http://www.w3.org/2000/svg" p-id="18354" xmlns:xlink="http://www.w3.org/1999/xlink" width="16" height="16"><defs><style type="text/css"></style></defs><path d="M942.695285 747.124464c-92.291845-39.553648-188.978541-61.527897-285.665236-74.712446l70.317597 149.424893-101.081545 202.16309c96.686695-4.39485 197.76824-13.184549 294.454936-26.369099 30.763948-4.39485 61.527897-35.158798 65.922747-65.922747 4.39485-35.158798 8.7897-70.317597 13.184549-101.081545C999.828332 799.862661 977.854083 760.309013 942.695285 747.124464z" p-id="18355" fill="#7c8fa0"></path><path d="M358.180264 668.017167c-96.686695 13.184549-193.373391 39.553648-281.270386 74.712446-30.763948 13.184549-52.738197 52.738197-52.738197 83.502146 4.39485 35.158798 8.7897 70.317597 13.184549 101.081545 4.39485 30.763948 30.763948 57.133047 65.922747 65.922747 96.686695 13.184549 193.373391 21.974249 290.060086 26.369099L292.257517 817.44206 358.180264 668.017167z" p-id="18356" fill="#7c8fa0"></path><path d="M547.158804 716.360515 468.051508 716.360515 428.49786 760.309013 468.051508 856.995708 441.682409 1024 573.527903 1024 547.158804 856.995708 591.107302 760.309013Z" p-id="18357" fill="#7c8fa0"></path><path d="M643.8455 544.961373c21.974249-13.184549 39.553648-39.553648 43.948498-57.133047 4.39485-21.974249 4.39485-48.343348 8.7897-70.317597 4.39485 4.39485 8.7897 4.39485 13.184549 4.39485 13.184549 0 21.974249-8.7897 21.974249-17.579399l13.184549-109.871245c0-13.184549-8.7897-21.974249-17.579399-21.974249-4.39485 0-8.7897 0-13.184549 4.39485 4.39485-21.974249 4.39485-39.553648 8.7897-61.527897 0-26.369099 17.579399-105.476395-39.553648-153.819742C599.897002-17.579399 424.10301-17.579399 344.995714 57.133047 292.257517 105.476395 305.442066 184.583691 305.442066 210.95279c4.39485 21.974249 4.39485 39.553648 8.7897 61.527897-4.39485 0-8.7897-4.39485-13.184549-4.39485-13.184549 0-17.579399 13.184549-17.579399 21.974249L292.257517 404.32618c0 13.184549 13.184549 17.579399 21.974249 17.579399 4.39485 0 8.7897-4.39485 13.184549-4.39485C331.811165 439.484979 336.206015 461.459227 336.206015 487.828326c0 17.579399 17.579399 39.553648 43.948498 57.133047 4.39485 35.158798 8.7897 70.317597 13.184549 101.081545 0 13.184549 26.369099 35.158798 52.738197 39.553648 39.553648 4.39485 83.502146 4.39485 127.450644 0 26.369099-4.39485 52.738197-26.369099 52.738197-39.553648C635.0558 610.88412 639.45065 580.120172 643.8455 544.961373z" p-id="18358" fill="#7c8fa0"></path></svg>