<?xml version="1.0" encoding="utf-8"?>
<!-- Generator: Adobe Illustrator 21.0.0, SVG Export Plug-In . SVG Version: 6.00 Build 0)  -->
<svg version="1.1" id="图层_1" xmlns="http://www.w3.org/2000/svg" xmlns:xlink="http://www.w3.org/1999/xlink" x="0px" y="0px"
	 viewBox="0 0 16.8 16" style="enable-background:new 0 0 16.8 16;" xml:space="preserve">
<style type="text/css">
	.st0{fill:#7C8FA0;}
</style>
<path class="st0" d="M5.6,12.8c0.2,0,0.4,0,0.6,0.1s0.4,0.2,0.5,0.3c0.1,0.1,0.3,0.3,0.3,0.5s0.1,0.4,0.1,0.6c0,0.2,0,0.4-0.1,0.6
	s-0.2,0.4-0.3,0.5c-0.1,0.1-0.3,0.3-0.5,0.3S5.8,16,5.6,16c-0.2,0-0.4,0-0.6-0.1s-0.4-0.2-0.5-0.3c-0.1-0.1-0.3-0.3-0.3-0.5
	S4,14.6,4,14.4c0-0.2,0-0.4,0.1-0.6s0.2-0.4,0.3-0.5C4.6,13.1,4.8,13,5,12.9C5.2,12.9,5.4,12.8,5.6,12.8z M12.7,12.9
	c0.2,0,0.4,0,0.6,0.1s0.4,0.2,0.5,0.3c0.1,0.1,0.3,0.3,0.3,0.5s0.1,0.4,0.1,0.6c0,0.2,0,0.4-0.1,0.6s-0.2,0.4-0.3,0.5
	c-0.1,0.1-0.3,0.3-0.5,0.3S12.9,16,12.7,16c-0.2,0-0.4,0-0.6-0.1s-0.4-0.2-0.5-0.3c-0.1-0.1-0.3-0.3-0.3-0.5s-0.1-0.4-0.1-0.6
	c0-0.2,0-0.4,0.1-0.6s0.2-0.4,0.3-0.5c0.1-0.1,0.3-0.3,0.5-0.3S12.5,12.9,12.7,12.9z M15.6,3.2c0.3,0,0.6,0,0.7,0.1
	c0.2,0.1,0.3,0.2,0.4,0.3c0.1,0.1,0.1,0.3,0.1,0.4c0,0.1,0,0.3-0.1,0.4c0,0.1-0.1,0.3-0.2,0.6s-0.2,0.7-0.4,1s-0.3,0.8-0.4,1.1
	c-0.1,0.4-0.2,0.7-0.3,0.9c-0.1,0.5-0.3,0.8-0.6,0.9c-0.2,0.2-0.5,0.3-0.8,0.3H5.1l0.2,1.5H14c0.5,0,0.8,0.2,0.8,0.7
	c0,0.2-0.1,0.4-0.2,0.6c-0.1,0.2-0.3,0.2-0.6,0.2H5.1c-0.2,0-0.4-0.1-0.6-0.2c-0.2-0.1-0.3-0.2-0.4-0.4c-0.1-0.2-0.2-0.3-0.2-0.5
	s-0.1-0.4-0.1-0.5c0-0.1,0-0.2-0.1-0.5c-0.1-0.3-0.1-0.6-0.2-1S3.3,8.4,3.2,7.9S3,7,2.9,6.5C2.7,5.3,2.5,4.1,2.2,2.7H0.9
	c-0.2,0-0.3,0-0.4-0.1S0.3,2.3,0.2,2.2S0.1,2,0,1.8c0-0.1,0-0.3,0-0.4c0-0.2,0.1-0.4,0.2-0.6s0.4-0.2,0.6-0.2h1.7
	c0.2,0,0.4,0,0.5,0.1C3.3,0.9,3.4,0.9,3.4,1c0.1,0.1,0.1,0.2,0.2,0.3s0.1,0.2,0.1,0.3c0,0.1,0,0.2,0.1,0.4c0,0.2,0,0.3,0.1,0.5
	c0,0.2,0.1,0.4,0.1,0.6L15.6,3.2L15.6,3.2z M14.3,2.6H8.1l2.2-2.2C10.6,0.1,10.9,0,11.2,0s0.6,0.1,0.9,0.4C12,0.4,14.3,2.6,14.3,2.6
	z"/>
</svg>
