<?xml version="1.0" standalone="no"?><!DOCTYPE svg PUBLIC "-//W3C//DTD SVG 1.1//EN" "http://www.w3.org/Graphics/SVG/1.1/DTD/svg11.dtd"><svg t="1526960470903" class="icon" style="" viewBox="0 0 1024 1024" version="1.1" xmlns="http://www.w3.org/2000/svg" p-id="1842" xmlns:xlink="http://www.w3.org/1999/xlink" width="32" height="32"><defs><style type="text/css"></style></defs><path d="M969.982 472.934l-128.468-105.438c0.303-2.601 0.454-5.251 0.454-7.926v-147.134c0-37.278-30.23-67.504-67.479-67.504h-51.090c-37.277 0-67.504 30.229-67.504 67.504v2.677l-102.078-83.794c-25.936-21.301-63.263-21.517-89.426-0.48l-409.956 329.194c-30.56 24.537-35.433 69.198-10.886 99.73 24.522 30.56 69.172 35.431 99.73 10.909l365.025-293.14 371.645 305.088c30.279 24.849 74.979 20.457 99.856-9.825 24.851-30.293 20.459-74.979-9.824-99.858zM163.935 592.905v371.202c0 37.277 30.23 67.504 67.504 67.504h251.863c-0.985-4.268-1.489-8.687-1.489-13.196v-273.189c0-37.289 34.928-67.504 78.038-67.504h66.014c43.108 0 78.038 30.218 78.038 67.504v273.19c0 4.508-0.507 8.927-1.489 13.196h78.366c37.277 0 67.504-30.23 67.504-67.504v-363.275l-342.172-271.561-342.173 263.632z" p-id="1843" fill="#21335d"></path></svg>